<svg width="512" height="512" viewBox="0 0 512 512" fill="none" xmlns="http://www.w3.org/2000/svg">
<path d="M255.911 511.285C114.988 511.461 -0.176836 396.959 0.000203847 255.333C0.177244 114.237 114.899 -0.176497 256.177 0.000204398C397.809 0.176905 512.265 114.679 512 256.305C511.645 397.931 396.304 511.461 255.911 511.285ZM386.744 68.4719C340.536 36.8424 289.814 22.9713 234.401 28.3607C174.473 34.1919 124.282 60.0786 84.5367 105.314C4.60324 196.492 9.38331 339.355 106.401 424.878C137.826 452.532 174.473 469.937 215.723 477.358C253.875 484.249 291.496 481.422 328.321 469.23C349.123 462.338 368.509 452.443 386.744 439.632C369.394 422.316 352.31 405.176 335.137 388.124C334.34 388.566 333.809 388.831 333.278 389.096C329.117 391.216 324.957 393.513 320.708 395.546C308.492 401.288 295.568 405.176 282.29 407.473C271.225 409.328 260.072 410.3 248.918 409.505C243.961 409.151 239.093 408.798 234.135 408.091C223.247 406.589 212.625 403.939 202.357 400.14C190.407 395.722 179.165 390.068 168.719 382.911C157.831 375.578 148.094 366.92 139.331 357.025C132.16 348.985 125.964 340.238 120.653 330.961C114.988 321.066 110.562 310.729 107.198 299.862C103.303 287.228 101.001 274.329 100.47 261.164C100.028 249.767 100.647 238.37 102.683 227.149C106.49 206.122 114.191 186.685 125.876 168.838C134.905 155.055 145.97 143.128 158.716 132.791C172.614 121.571 188.017 113.177 204.924 107.346C222.008 101.427 239.712 98.511 257.77 98.7761C264.498 98.8644 271.225 99.3945 277.953 100.366C289.372 101.957 300.437 104.872 311.236 108.936C318.761 111.764 326.108 115.121 333.012 119.273C335.137 120.51 335.314 120.422 337.084 118.567C339.297 116.269 341.599 114.061 343.812 111.852C348.415 107.258 353.106 102.575 357.709 97.9809C366.65 89.0575 375.679 80.1341 384.619 71.2107C385.239 70.3272 385.859 69.5321 386.744 68.4719ZM165.621 158.766C165.09 159.119 164.824 159.208 164.647 159.296C162.965 161.063 161.284 162.83 159.602 164.597C151.192 173.432 144.376 183.328 138.799 194.106C132.692 205.857 128.62 218.314 126.23 231.39C126.053 232.627 126.23 233.511 127.203 234.482C131.452 238.723 135.701 242.964 139.95 247.205C149.51 256.747 159.159 266.289 168.719 275.919C186.954 294.119 205.189 312.319 223.336 330.52C233.516 340.68 243.696 350.84 253.875 361C254.495 361.619 255.203 362.237 255.911 362.944C261.134 357.731 266.091 352.784 271.137 347.748C276.094 342.8 281.051 337.853 286.008 332.905C291.054 327.869 296.011 322.921 301.057 317.885C306.102 312.849 311.059 307.902 316.105 302.866C321.062 297.918 326.019 292.971 330.976 288.023C336.022 282.987 340.979 278.039 346.025 273.003C351.07 267.967 356.027 263.02 361.073 257.984C366.119 252.948 371.076 248 376.121 242.964C381.079 238.017 386.036 233.069 390.993 228.121C395.95 223.174 400.907 218.138 406.13 213.102C409.493 225.117 411.264 237.045 411.618 249.149C411.883 257.542 411.441 266.024 410.29 274.329C408.431 288.2 404.802 301.541 399.402 314.44C395.242 324.512 389.931 333.877 383.734 342.889C378.246 350.752 372.05 358.085 365.233 364.888C364.614 365.418 364.083 366.036 363.729 366.478C380.636 383.353 397.366 400.051 414.274 416.926C443.308 388.301 463.756 354.551 474.644 315.147C488.011 266.819 485.621 219.109 467.74 172.284C455.966 141.449 437.908 114.502 414.008 91.2663C361.25 143.923 308.669 196.403 256 249.06C225.726 218.756 195.718 188.805 165.621 158.766Z" fill="black"/>
</svg>
